HIERARCHY
ROOT Pelvis
{
	OFFSET 0.000000 0.000000 0.000000
	CHANNELS 6 Xposition Yposition Zposition Zrotation Yrotation Xrotation 
	JOINT Left_hip
	{
		OFFSET 0.070241 -0.085575 -0.010474
		CHANNELS 3 Zrotation Yrotation Xrotation
		JOINT Left_knee
		{
			OFFSET 0.032125 -0.356873 -0.000555
			CHANNELS 3 Zrotation Yrotation Xrotation
			JOINT Left_ankle
			{
				OFFSET -0.010961 -0.370212 -0.042278
				CHANNELS 3 Zrotation Yrotation Xrotation
				JOINT Left_foot
				{
					OFFSET 0.023322 -0.052281 0.110104
					CHANNELS 3 Zrotation Yrotation Xrotation
					End Site
					{
						OFFSET 0.000000 0.000000 0.000000
					}
				}
			}
		}
	}
	JOINT Right_hip
	{
		OFFSET -0.068518 -0.084320 -0.007402
		CHANNELS 3 Zrotation Yrotation Xrotation
		JOINT Right_knee
		{
			OFFSET -0.037345 -0.364815 -0.003619
			CHANNELS 3 Zrotation Yrotation Xrotation
			JOINT Right_ankle
			{
				OFFSET 0.013394 -0.370006 -0.039954
				CHANNELS 3 Zrotation Yrotation Xrotation
				JOINT Right_foot
				{
					OFFSET -0.019600 -0.045455 0.113223
					CHANNELS 3 Zrotation Yrotation Xrotation
					End Site
					{
						OFFSET 0.000000 0.000000 0.000000
					}
				}
			}
		}
	}
	JOINT Spine1
	{
		OFFSET -0.002404 0.098129 -0.018169
		CHANNELS 3 Zrotation Yrotation Xrotation
		JOINT Spine2
		{
			OFFSET 0.003989 0.127209 -0.001742
			CHANNELS 3 Zrotation Yrotation Xrotation
			JOINT Spine3
			{
				OFFSET 0.001758 0.046641 0.023475
				CHANNELS 3 Zrotation Yrotation Xrotation
				JOINT Neck
				{
					OFFSET -0.003759 0.194901 -0.039982
					CHANNELS 3 Zrotation Yrotation Xrotation
					JOINT Head
					{
						OFFSET 0.003999 0.063756 0.047665
						CHANNELS 3 Zrotation Yrotation Xrotation
						End Site
						{
							OFFSET 0.000000 0.000000 0.000000
						}
					}
				}
				JOINT Left_collar
				{
					OFFSET 0.071816 0.109048 -0.028973
					CHANNELS 3 Zrotation Yrotation Xrotation
					JOINT Left_shoulder
					{
						OFFSET 0.084027 0.032269 -0.006525
						CHANNELS 3 Zrotation Yrotation Xrotation
						JOINT Left_elbow
						{
							OFFSET 0.243854 -0.013992 -0.025905
							CHANNELS 3 Zrotation Yrotation Xrotation
							JOINT Left_wrist
							{
								OFFSET 0.232156 0.008196 -0.000339
								CHANNELS 3 Zrotation Yrotation Xrotation
								JOINT Left_palm
								{
									OFFSET 0.075377 -0.009461 -0.012494
									CHANNELS 3 Zrotation Yrotation Xrotation
									End Site
									{
										OFFSET 0.000000 0.000000 0.000000
									}
								}
							}
						}
					}
				}
				JOINT Right_collar
				{
					OFFSET -0.073768 0.107001 -0.033755
					CHANNELS 3 Zrotation Yrotation Xrotation
					JOINT Right_shoulder
					{
						OFFSET -0.086837 0.032868 -0.009431
						CHANNELS 3 Zrotation Yrotation Xrotation
						JOINT Right_elbow
						{
							OFFSET -0.236446 -0.012544 -0.018747
							CHANNELS 3 Zrotation Yrotation Xrotation
							JOINT Right_wrist
							{
								OFFSET -0.236110 0.006124 -0.004327
								CHANNELS 3 Zrotation Yrotation Xrotation
								JOINT Right_palm
								{
									OFFSET -0.074800 -0.006875 -0.009610
									CHANNELS 3 Zrotation Yrotation Xrotation
									End Site
									{
										OFFSET 0.000000 0.000000 0.000000
									}
								}
							}
						}
					}
				}
			}
		}
	}
}
MOTION
Frames: 7
Frame Time: 0.100000
0.067331 0.246841 -0.147899 176.547134 24.999800 -24.424669 11.321909 2.699500 -49.851970 -3.130470 13.789916 57.058376 -0.540547 11.290061 6.543719 9.583241 8.843799 -15.374101 -7.189563 -0.901365 -50.257548 4.430588 -8.175523 65.506163 5.105886 -8.613122 -6.104018 -19.479997 4.100105 -2.679276 1.709485 0.142088 24.206593 -2.046184 -3.195664 -10.382653 -1.126050 3.481973 0.730773 -11.447733 -13.221631 8.608366 11.401134 4.722099 10.559056 -12.189449 -10.436064 -7.366306 -54.780196 -10.846224 30.942382 -48.952840 -87.189908 48.209789 -2.975725 -10.433259 -62.509188 -23.172768 -5.393617 0.818836 1.516610 13.308680 -8.980514 27.847085 22.901623 13.214080 163.468021 72.636242 158.847157 -1.143245 9.870541 -46.557776 22.528302 5.862446 -2.097873 
0.066965 0.245714 -0.147505 176.651576 24.964239 -23.926894 11.217335 2.529110 -50.302576 -3.079107 13.739695 56.996084 -0.735253 11.394901 6.577585 9.983847 8.989386 -14.891069 -7.373861 -0.970535 -50.700955 4.359951 -8.234402 65.556475 6.438801 -8.389534 -6.141914 -22.205716 3.114512 -3.084423 1.886950 -0.074042 23.997343 -2.539172 -3.668407 -11.450137 -1.151725 3.744985 0.894632 -12.564181 -15.350074 8.577737 12.861850 5.709982 9.865348 -12.874287 -12.278498 -6.724285 -54.719858 -9.388809 30.064257 -23.554226 -85.618504 25.700543 -3.680998 -11.399237 -61.321673 -22.605777 -5.383104 1.311620 -0.269704 14.280635 -10.473506 23.168079 25.801913 6.834239 -177.648988 68.527025 178.394191 -2.812862 10.989571 -43.542633 23.077602 5.135907 -2.593645 
0.066768 0.245306 -0.147633 176.527132 25.192365 -23.475323 11.072087 2.336023 -50.908162 -2.933703 13.607120 56.984798 -0.888879 11.265978 6.740114 9.806188 9.310384 -14.753239 -7.472685 -1.088947 -51.188016 4.113144 -8.275431 65.622464 7.489058 -8.098544 -6.240778 -24.026550 2.254630 -3.089062 2.131575 -0.184050 23.773313 -2.837361 -3.954062 -12.306279 -1.089734 4.070636 0.879349 -13.369570 -17.270312 7.960291 13.932250 6.297192 8.823258 -13.819535 -14.264942 -5.780084 -54.403094 -8.038062 28.951748 -14.735928 -84.989113 20.494283 -1.861577 -11.722190 -59.472948 -21.761131 -5.293918 2.365887 -1.194361 15.224025 -11.320624 17.836274 27.484908 -0.423121 -167.460997 63.180982 -168.310492 -7.687687 11.541943 -36.127056 23.641548 4.673583 -3.203328 
0.066435 0.244537 -0.147636 176.357440 25.412585 -23.078206 10.987001 2.233412 -51.411269 -2.800485 13.576845 56.940422 -0.956332 11.004523 6.912476 9.271247 9.673719 -14.870778 -7.531182 -1.237008 -51.611728 3.914577 -8.298072 65.655553 8.375208 -7.868537 -6.264294 -25.591505 1.639348 -3.167828 2.315755 -0.269712 23.686751 -3.045186 -4.108990 -13.103574 -0.936439 4.371606 0.814127 -13.652575 -18.924800 6.317014 14.816211 6.327306 6.287558 -14.168327 -15.887233 -5.114383 -54.324812 -6.827375 27.912882 -9.133498 -85.148186 17.819350 -0.953960 -12.110002 -57.759892 -21.188682 -5.367411 2.781789 -2.091984 16.168342 -11.863330 13.933469 28.238615 -6.481974 -160.555242 59.571542 -158.869274 -11.144944 11.922200 -29.772927 24.113425 4.538901 -4.020462 
0.066172 0.243891 -0.147416 176.183873 25.506325 -22.800806 10.958783 2.238623 -51.761306 -2.657214 13.516170 56.977003 -1.334430 10.826476 6.865007 9.329682 9.842618 -14.908251 -7.584734 -1.301080 -51.858608 3.734881 -8.454800 65.659664 8.850613 -7.587697 -6.228691 -26.456122 1.155857 -3.519756 2.409566 -0.357611 23.665477 -3.066080 -4.170042 -13.623083 -0.700337 4.482987 0.529121 -13.564983 -19.944009 4.385965 15.415420 6.169380 2.843374 -14.415197 -17.083259 -4.708928 -54.180080 -5.908705 27.351587 -5.644363 -85.008930 15.953916 0.820520 -12.988708 -57.041502 -20.643419 -5.148556 3.190913 -2.693083 17.233871 -12.317564 11.572607 28.470851 -9.968871 -157.007860 57.925589 -153.882261 -14.410779 13.277805 -26.759270 24.067891 4.093355 -4.020018 
0.065869 0.243679 -0.147431 176.122804 25.508457 -22.722794 11.028366 2.284160 -51.849751 -2.569742 13.662621 57.015034 -1.255014 10.485217 6.924326 8.925598 10.196082 -15.031650 -7.646683 -1.342971 -51.935967 3.606788 -8.580884 65.668145 9.201508 -7.296352 -6.181743 -27.067203 0.743385 -3.650809 2.342654 -0.358755 23.548114 -2.989679 -4.206520 -13.891386 -0.575054 4.502023 0.312461 -13.309892 -20.277499 3.373973 15.660067 5.792610 1.367833 -14.288834 -17.584194 -4.585069 -54.455614 -5.385581 27.105623 -3.522292 -84.896099 15.002381 0.450302 -13.424719 -56.093273 -20.369210 -5.136326 3.067911 -2.766776 17.845417 -12.493799 11.746045 28.939510 -10.822826 -156.072283 56.535697 -151.793810 -14.974816 13.669175 -25.101870 24.088497 3.939942 -4.244619 
0.065707 0.243632 -0.148367 176.116031 25.344469 -22.712983 11.091160 2.387774 -51.862408 -2.484312 13.725780 56.951112 -1.306643 10.465910 7.124577 8.935589 10.222300 -15.158225 -7.607618 -1.278847 -51.970884 3.613777 -8.600412 65.538177 9.316066 -7.241566 -6.040520 -27.260085 0.738771 -3.696790 2.378379 -0.338135 23.533450 -2.921472 -4.148073 -14.028949 -0.500503 4.530120 0.302714 -13.311869 -20.177637 3.154096 15.617579 5.724947 1.154306 -14.200461 -17.584077 -4.609696 -54.609981 -5.317307 27.115657 -3.431926 -85.025009 15.008546 0.714757 -13.419635 -56.279009 -20.394426 -5.100681 3.085156 -2.667325 17.984325 -12.490830 12.055200 29.107167 -10.748530 -155.882252 56.326253 -151.597227 -15.309853 13.683621 -25.341548 24.113334 3.872223 -4.213668 
